<svg xmlns="http://www.w3.org/2000/svg" viewBox="0 0 64 64" width="64" height="64">
  <!-- 像素風格籃子 -->
  <rect x="8" y="48" width="48" height="8" fill="#8B4513"/>
  <rect x="12" y="40" width="40" height="8" fill="#A0522D"/>
  <rect x="16" y="32" width="32" height="8" fill="#CD853F"/>
  <rect x="20" y="24" width="24" height="8" fill="#DEB887"/>

  <!-- 籃子網格紋理 -->
  <rect x="12" y="42" width="4" height="4" fill="#8B4513"/>
  <rect x="20" y="42" width="4" height="4" fill="#8B4513"/>
  <rect x="28" y="42" width="4" height="4" fill="#8B4513"/>
  <rect x="36" y="42" width="4" height="4" fill="#8B4513"/>
  <rect x="44" y="42" width="4" height="4" fill="#8B4513"/>

  <rect x="16" y="34" width="4" height="4" fill="#A0522D"/>
  <rect x="24" y="34" width="4" height="4" fill="#A0522D"/>
  <rect x="32" y="34" width="4" height="4" fill="#A0522D"/>
  <rect x="40" y="34" width="4" height="4" fill="#A0522D"/>

  <!-- 籃子手柄 -->
  <rect x="8" y="20" width="4" height="4" fill="#8B4513"/>
  <rect x="8" y="16" width="4" height="4" fill="#8B4513"/>
  <rect x="12" y="12" width="4" height="4" fill="#8B4513"/>
  <rect x="16" y="8" width="4" height="4" fill="#8B4513"/>
  <rect x="20" y="8" width="24" height="4" fill="#8B4513"/>
  <rect x="44" y="8" width="4" height="4" fill="#8B4513"/>
  <rect x="48" y="12" width="4" height="4" fill="#8B4513"/>
  <rect x="52" y="16" width="4" height="4" fill="#8B4513"/>
  <rect x="52" y="20" width="4" height="4" fill="#8B4513"/>

  <!-- 陰影 -->
  <rect x="8" y="54" width="48" height="2" fill="#000000" opacity="0.3"/>
</svg>
