<svg xmlns="http://www.w3.org/2000/svg" viewBox="0 0 32 32" width="32" height="32">
  <!-- 像素風格愛心 -->

  <!-- 愛心頂部 -->
  <rect x="8" y="4" width="4" height="4" fill="#FF1493"/>
  <rect x="12" y="4" width="4" height="4" fill="#FF1493"/>
  <rect x="16" y="4" width="4" height="4" fill="#FF1493"/>
  <rect x="20" y="4" width="4" height="4" fill="#FF1493"/>

  <!-- 愛心上部 -->
  <rect x="4" y="8" width="4" height="4" fill="#FF1493"/>
  <rect x="8" y="8" width="16" height="4" fill="#FF1493"/>
  <rect x="24" y="8" width="4" height="4" fill="#FF1493"/>

  <!-- 愛心中部 -->
  <rect x="4" y="12" width="24" height="4" fill="#FF1493"/>
  <rect x="4" y="16" width="24" height="4" fill="#FF1493"/>

  <!-- 愛心下部 -->
  <rect x="8" y="20" width="16" height="4" fill="#FF1493"/>
  <rect x="12" y="24" width="8" height="4" fill="#FF1493"/>
  <rect x="14" y="28" width="4" height="4" fill="#FF1493"/>

  <!-- 高光效果 -->
  <rect x="12" y="8" width="4" height="4" fill="#FF69B4"/>
  <rect x="16" y="8" width="4" height="4" fill="#FF69B4"/>
  <rect x="8" y="12" width="8" height="4" fill="#FF69B4"/>

  <!-- 閃光星星裝飾 -->
  <rect x="2" y="2" width="2" height="2" fill="#FFD700"/>
  <rect x="28" y="2" width="2" height="2" fill="#FFD700"/>
  <rect x="0" y="6" width="2" height="2" fill="#FFD700"/>
  <rect x="30" y="6" width="2" height="2" fill="#FFD700"/>
</svg>
